<svg xmlns="http://www.w3.org/2000/svg" width="1200" height="630" viewBox="0 0 1200 630" role="img" aria-label="PATHOS social card">
  <defs>
    <linearGradient id="g" x1="0" y1="0" x2="1" y2="1">
      <stop offset="0" stop-color="#78f3ff"/>
      <stop offset="1" stop-color="#b5ff70"/>
    </linearGradient>
    <radialGradient id="r" cx="30%" cy="25%" r="80%">
      <stop offset="0" stop-color="#183f3d"/>
      <stop offset="0.45" stop-color="#07110f"/>
      <stop offset="1" stop-color="#030605"/>
    </radialGradient>
  </defs>
  <rect width="1200" height="630" fill="url(#r)"/>
  <g opacity="0.16" stroke="#f5f1e8">
    <path d="M0 90h1200M0 180h1200M0 270h1200M0 360h1200M0 450h1200M0 540h1200"/>
    <path d="M120 0v630M240 0v630M360 0v630M480 0v630M600 0v630M720 0v630M840 0v630M960 0v630M1080 0v630"/>
  </g>
  <circle cx="950" cy="115" r="160" fill="#b5ff70" opacity="0.14"/>
  <circle cx="160" cy="515" r="190" fill="#78f3ff" opacity="0.12"/>
  <rect x="70" y="70" width="1060" height="490" rx="44" fill="#f5f1e8" opacity="0.06" stroke="#f5f1e8" stroke-opacity="0.18"/>
  <text x="96" y="150" fill="#b5ff70" font-family="Inter, Arial, sans-serif" font-size="28" font-weight="800" letter-spacing="5">PATHOS</text>
  <text x="96" y="282" fill="#f5f1e8" font-family="Inter, Arial, sans-serif" font-size="88" font-weight="900">Transfer the working bond.</text>
  <text x="100" y="360" fill="#d8dfd7" font-family="Inter, Arial, sans-serif" font-size="34">A Codex skill for human/agent continuity, handoff, access maps, proof discipline, and next-agent prompts.</text>
  <rect x="96" y="426" width="318" height="66" rx="33" fill="url(#g)"/>
  <text x="128" y="470" fill="#07110f" font-family="Inter, Arial, sans-serif" font-size="26" font-weight="800">No secrets. Proof first.</text>
</svg>
